HIERARCHY
ROOT Root
{
  OFFSET 0.0 0.0 0.0
  CHANNELS 6 Xposition Yposition Zposition Zrotation Yrotation Xrotation
  JOINT Hips
  {
    OFFSET 0.0 100.0 0.0
    CHANNELS 6 Xposition Yposition Zposition Zrotation Yrotation Xrotation
    JOINT Spine1
    {
      OFFSET 5.003913 -0.037094 -0.013727
      CHANNELS 3 Zrotation Yrotation Xrotation
      JOINT Spine2
      {
        OFFSET 7.125363 -1e-06 0.0
        CHANNELS 3 Zrotation Yrotation Xrotation
        JOINT Chest
        {
          OFFSET 7.594027 1e-06 0.0
          CHANNELS 3 Zrotation Yrotation Xrotation
          JOINT Neck1
          {
            OFFSET 26.313086 -0.460272 -0.181672
            CHANNELS 3 Zrotation Yrotation Xrotation
            JOINT Neck2
            {
              OFFSET 8.045911 0.0 0.0
              CHANNELS 3 Zrotation Yrotation Xrotation
              JOINT Head
              {
                OFFSET 6.432774 0.0 0.0
                CHANNELS 3 Zrotation Yrotation Xrotation
                JOINT HeadEnd
                {
                  OFFSET 16.169773 0.06451 0.00362
                  CHANNELS 3 Zrotation Yrotation Xrotation
                }
                JOINT Jaw
                {
                  OFFSET 0.108741 3.12938 0.002639
                  CHANNELS 3 Zrotation Yrotation Xrotation
                }
                JOINT LeftEye
                {
                  OFFSET 4.45173 8.166359 3.206392
                  CHANNELS 3 Zrotation Yrotation Xrotation
                }
                JOINT RightEye
                {
                  OFFSET 4.436895 8.135758 -3.222429
                  CHANNELS 3 Zrotation Yrotation Xrotation
                }
              }
            }
          }
          JOINT LeftShoulder
          {
            OFFSET 23.218927 5.195579 1.621656
            CHANNELS 3 Zrotation Yrotation Xrotation
            JOINT LeftArm
            {
              OFFSET 15.902118 2e-06 -2e-06
              CHANNELS 3 Zrotation Yrotation Xrotation
              JOINT LeftForeArm
              {
                OFFSET 28.739307 0.0 -1e-06
                CHANNELS 3 Zrotation Yrotation Xrotation
                JOINT LeftHand
                {
                  OFFSET 27.093981 -4e-06 0.0
                  CHANNELS 3 Zrotation Yrotation Xrotation
                  JOINT LeftHandThumb1
                  {
                    OFFSET 2.276781 3.380274 0.83384
                    CHANNELS 3 Zrotation Yrotation Xrotation
                    JOINT LeftHandThumb2
                    {
                      OFFSET 4.705309 -1e-06 -1e-06
                      CHANNELS 3 Zrotation Yrotation Xrotation
                      JOINT LeftHandThumb3
                      {
                        OFFSET 2.798515 0.0 3e-06
                        CHANNELS 3 Zrotation Yrotation Xrotation
                        JOINT LeftHandThumbEnd
                        {
                          OFFSET 3.180793 4e-06 -4e-06
                          CHANNELS 3 Zrotation Yrotation Xrotation
                        }
                      }
                    }
                  }
                  JOINT LeftHandIndex1
                  {
                    OFFSET 3.247786 2.352677 0.137192
                    CHANNELS 3 Zrotation Yrotation Xrotation
                    JOINT LeftHandIndex2
                    {
                      OFFSET 6.367095 1e-06 0.0
                      CHANNELS 3 Zrotation Yrotation Xrotation
                      JOINT LeftHandIndex3
                      {
                        OFFSET 3.662364 0.0 0.0
                        CHANNELS 3 Zrotation Yrotation Xrotation
                        JOINT LeftHandIndex4
                        {
                          OFFSET 2.329242 4e-06 -4e-06
                          CHANNELS 3 Zrotation Yrotation Xrotation
                          JOINT LeftHandIndexEnd
                          {
                            OFFSET 2.767823 1e-06 0.0
                            CHANNELS 3 Zrotation Yrotation Xrotation
                          }
                        }
                      }
                    }
                  }
                  JOINT LeftHandMiddle1
                  {
                    OFFSET 3.163612 0.945023 -0.406112
                    CHANNELS 3 Zrotation Yrotation Xrotation
                    JOINT LeftHandMiddle2
                    {
                      OFFSET 6.276789 3e-06 0.0
                      CHANNELS 3 Zrotation Yrotation Xrotation
                      JOINT LeftHandMiddle3
                      {
                        OFFSET 4.35652 -1e-06 4e-06
                        CHANNELS 3 Zrotation Yrotation Xrotation
                        JOINT LeftHandMiddle4
                        {
                          OFFSET 2.996877 0.0 8e-06
                          CHANNELS 3 Zrotation Yrotation Xrotation
                          JOINT LeftHandMiddleEnd
                          {
                            OFFSET 2.323256 3e-06 -4e-06
                            CHANNELS 3 Zrotation Yrotation Xrotation
                          }
                        }
                      }
                    }
                  }
                  JOINT LeftHandRing1
                  {
                    OFFSET 2.882606 -0.309162 0.107445
                    CHANNELS 3 Zrotation Yrotation Xrotation
                    JOINT LeftHandRing2
                    {
                      OFFSET 6.033198 0.0 4e-06
                      CHANNELS 3 Zrotation Yrotation Xrotation
                      JOINT LeftHandRing3
                      {
                        OFFSET 4.350578 3e-06 0.0
                        CHANNELS 3 Zrotation Yrotation Xrotation
                        JOINT LeftHandRing4
                        {
                          OFFSET 2.651321 2e-06 -7e-06
                          CHANNELS 3 Zrotation Yrotation Xrotation
                          JOINT LeftHandRingEnd
                          {
                            OFFSET 1.937663 1e-06 -4e-06
                            CHANNELS 3 Zrotation Yrotation Xrotation
                          }
                        }
                      }
                    }
                  }
                  JOINT LeftHandPinky1
                  {
                    OFFSET 2.865315 -1.525436 0.575687
                    CHANNELS 3 Zrotation Yrotation Xrotation
                    JOINT LeftHandPinky2
                    {
                      OFFSET 5.54936 1e-06 -8e-06
                      CHANNELS 3 Zrotation Yrotation Xrotation
                      JOINT LeftHandPinky3
                      {
                        OFFSET 3.070974 0.0 -4e-06
                        CHANNELS 3 Zrotation Yrotation Xrotation
                        JOINT LeftHandPinky4
                        {
                          OFFSET 1.549672 1e-06 0.0
                          CHANNELS 3 Zrotation Yrotation Xrotation
                          JOINT LeftHandPinkyEnd
                          {
                            OFFSET 1.952123 0.0 0.0
                            CHANNELS 3 Zrotation Yrotation Xrotation
                          }
                        }
                      }
                    }
                  }
                }
              }
            }
          }
          JOINT RightShoulder
          {
            OFFSET 23.161716 5.296122 -1.380114
            CHANNELS 3 Zrotation Yrotation Xrotation
            JOINT RightArm
            {
              OFFSET -16.027195 -2e-06 1.1e-05
              CHANNELS 3 Zrotation Yrotation Xrotation
              JOINT RightForeArm
              {
                OFFSET -28.736639 4e-06 2e-06
                CHANNELS 3 Zrotation Yrotation Xrotation
                JOINT RightHand
                {
                  OFFSET -27.133619 6e-06 0.0
                  CHANNELS 3 Zrotation Yrotation Xrotation
                  JOINT RightHandThumb1
                  {
                    OFFSET -2.274328 -3.351035 -0.83067
                    CHANNELS 3 Zrotation Yrotation Xrotation
                    JOINT RightHandThumb2
                    {
                      OFFSET -4.703594 -3e-06 2e-06
                      CHANNELS 3 Zrotation Yrotation Xrotation
                      JOINT RightHandThumb3
                      {
                        OFFSET -2.794935 -4e-06 -3e-06
                        CHANNELS 3 Zrotation Yrotation Xrotation
                        JOINT RightHandThumbEnd
                        {
                          OFFSET -3.183852 4e-06 1e-06
                          CHANNELS 3 Zrotation Yrotation Xrotation
                        }
                      }
                    }
                  }
                  JOINT RightHandIndex1
                  {
                    OFFSET -3.253496 -2.33755 -0.127667
                    CHANNELS 3 Zrotation Yrotation Xrotation
                    JOINT RightHandIndex2
                    {
                      OFFSET -6.344434 0.0 0.0
                      CHANNELS 3 Zrotation Yrotation Xrotation
                      JOINT RightHandIndex3
                      {
                        OFFSET -3.654871 0.0 -8e-06
                        CHANNELS 3 Zrotation Yrotation Xrotation
                        JOINT RightHandIndex4
                        {
                          OFFSET -2.327586 -1e-06 0.0
                          CHANNELS 3 Zrotation Yrotation Xrotation
                          JOINT RightHandIndexEnd
                          {
                            OFFSET -2.770001 3e-06 8e-06
                            CHANNELS 3 Zrotation Yrotation Xrotation
                          }
                        }
                      }
                    }
                  }
                  JOINT RightHandMiddle1
                  {
                    OFFSET -3.168223 -0.944764 0.411762
                    CHANNELS 3 Zrotation Yrotation Xrotation
                    JOINT RightHandMiddle2
                    {
                      OFFSET -6.266691 -1e-06 -4e-06
                      CHANNELS 3 Zrotation Yrotation Xrotation
                      JOINT RightHandMiddle3
                      {
                        OFFSET -4.348901 0.0 0.0
                        CHANNELS 3 Zrotation Yrotation Xrotation
                        JOINT RightHandMiddle4
                        {
                          OFFSET -3.00024 2e-06 -4e-06
                          CHANNELS 3 Zrotation Yrotation Xrotation
                          JOINT RightHandMiddleEnd
                          {
                            OFFSET -2.321477 -4e-06 -4e-06
                            CHANNELS 3 Zrotation Yrotation Xrotation
                          }
                        }
                      }
                    }
                  }
                  JOINT RightHandRing1
                  {
                    OFFSET -2.885654 0.293261 -0.119232
                    CHANNELS 3 Zrotation Yrotation Xrotation
                    JOINT RightHandRing2
                    {
                      OFFSET -6.032835 -1e-06 -4e-06
                      CHANNELS 3 Zrotation Yrotation Xrotation
                      JOINT RightHandRing3
                      {
                        OFFSET -4.33881 0.0 -4e-06
                        CHANNELS 3 Zrotation Yrotation Xrotation
                        JOINT RightHandRing4
                        {
                          OFFSET -2.654903 -4e-06 -4e-06
                          CHANNELS 3 Zrotation Yrotation Xrotation
                          JOINT RightHandRingEnd
                          {
                            OFFSET -1.935122 0.0 4e-06
                            CHANNELS 3 Zrotation Yrotation Xrotation
                          }
                        }
                      }
                    }
                  }
                  JOINT RightHandPinky1
                  {
                    OFFSET -2.866241 1.503904 -0.60527
                    CHANNELS 3 Zrotation Yrotation Xrotation
                    JOINT RightHandPinky2
                    {
                      OFFSET -5.553177 -2e-06 0.0
                      CHANNELS 3 Zrotation Yrotation Xrotation
                      JOINT RightHandPinky3
                      {
                        OFFSET -3.062664 -1e-06 -4e-06
                        CHANNELS 3 Zrotation Yrotation Xrotation
                        JOINT RightHandPinky4
                        {
                          OFFSET -1.546529 2e-06 4e-06
                          CHANNELS 3 Zrotation Yrotation Xrotation
                          JOINT RightHandPinkyEnd
                          {
                            OFFSET -1.952341 0.0 -4e-06
                            CHANNELS 3 Zrotation Yrotation Xrotation
                          }
                        }
                      }
                    }
                  }
                }
              }
            }
          }
        }
      }
    }
    JOINT LeftLeg
    {
      OFFSET -8.443107 2.567604 10.043214
      CHANNELS 3 Zrotation Yrotation Xrotation
      JOINT LeftShin
      {
        OFFSET 43.229198 1e-06 -1e-06
        CHANNELS 3 Zrotation Yrotation Xrotation
        JOINT LeftFoot
        {
          OFFSET 42.298611 1e-06 1e-06
          CHANNELS 3 Zrotation Yrotation Xrotation
          JOINT LeftToeBase
          {
            OFFSET 14.165858 1e-06 0.0
            CHANNELS 3 Zrotation Yrotation Xrotation
            JOINT LeftToeEnd
            {
              OFFSET 6.7141 -0.234461 0.0
              CHANNELS 3 Zrotation Yrotation Xrotation
            }
          }
        }
      }
    }
    JOINT RightLeg
    {
      OFFSET -8.303923 2.592729 -10.047278
      CHANNELS 3 Zrotation Yrotation Xrotation
      JOINT RightShin
      {
        OFFSET -43.369682 0.0 1e-06
        CHANNELS 3 Zrotation Yrotation Xrotation
        JOINT RightFoot
        {
          OFFSET -42.260784 4e-06 2e-06
          CHANNELS 3 Zrotation Yrotation Xrotation
          JOINT RightToeBase
          {
            OFFSET -14.222245 -2e-06 -1e-06
            CHANNELS 3 Zrotation Yrotation Xrotation
            JOINT RightToeEnd
            {
              OFFSET -6.660062 0.232574 -2e-06
              CHANNELS 3 Zrotation Yrotation Xrotation
            }
          }
        }
      }
    }
  }
}
MOTION
Frames: 4
Frame Time: 0.03333333333333333
0.0 0.0 0.0 0.0 -0.0 0.0 3.27693 99.854126 1.810166 91.109161 0.063982 90.037849 -2.069617 -0.153089 -0.045514 -11.679971 -0.506488 -0.172455 16.496809 0.244645 -2.216634 18.209225 -2.294876 2.722556 -2.424287 -0.757679 0.719158 -26.503332 -0.378949 0.72871 6e-06 -0.0 0.0 -0.011308 0.022376 -0.00109 0.032083 0.098684 0.003815 0.050472 -0.059715 -0.000653 -141.764069 -70.122955 161.407211 34.48745 -36.69511 25.331079 39.965313 0.472961 0.015259 2.980424 -3.081599 12.022394 17.636621 -26.322725 52.411182 -19.466661 -14.395598 29.410389 -1e-06 -8.774821 -1e-06 15.951519 -18.198233 6.122764 -0.609776 -1.795652 -3.889327 -4.807087 -11.046811 -2.937849 4e-06 -20.976017 1e-06 -5.019969 -25.033556 -4.031879 6e-06 1e-06 0.0 -10.634533 -5.68697 -3.565587 10.573274 -17.922951 -3.1139 3e-06 -13.821211 2e-06 -0.50178 -31.181507 -4.027013 -11.170812 -59.497723 6.780882 -13.982712 -7.150197 -2.875041 13.77273 -8.401493 -3.218241 0.347734 -34.211555 0.771655 -0.963027 -17.73337 2.62102 0.0 -0.0 1e-06 -17.346413 -20.095215 -4.201782 21.757557 -1.638376 3.866426 2e-06 -6.338823 -0.0 -1.69759 -22.591745 -6.194004 -1e-06 -4e-06 -3e-06 38.823185 -77.311447 160.025574 41.033443 -47.321877 10.528293 34.174095 0.026455 0.184261 1.596852 -12.518687 29.248512 22.182116 -20.375889 49.933308 -16.701811 -16.74353 28.476522 -3e-06 -12.690601 -1e-06 16.197435 -17.929604 2.794862 -0.105919 -1.513857 -4.275881 -5.039042 -5.612871 -2.953556 4e-06 -11.020525 -2e-06 -6.111298 -15.895334 -3.84047 0.0 0.0 0.0 -10.283371 -5.680288 -4.341836 11.028296 -11.302403 -2.372633 -1.384269 -14.238578 -6.320121 -0.625439 -26.924185 -3.8276 -4.902334 -50.017693 -3.62904 -13.708527 -7.363475 -3.720938 18.141148 -14.052737 -3.242674 6e-06 -18.78727 -1e-06 -0.429712 -8.456043 2.555504 -0.0 0.0 0.0 -15.923536 -20.094482 -5.473583 30.41921 -7.190824 1.735927 1e-06 -8.162926 -1e-06 -1.861905 -22.861467 -6.167942 -0.0 -4e-06 -2e-06 172.987762 -4.533995 -9.386811 14.941631 -0.000812 0.060175 -75.797417 -3.297419 -8.889048 -6.318012 1.49805 2.090598 -0.999999 0.0 -0.0 -7.590323 -6.673265 -6.162859 18.218893 -0.012266 0.038215 -78.837463 -1.660809 -7.405645 -6.434315 0.84153 1.682761 -1.000003 0.0 0.0 
0.0 0.0 0.0 0.0 -0.0 0.0 3.276689 99.875023 1.779472 91.141869 0.086796 90.028282 -2.053867 -0.193829 -0.065907 -11.660494 -0.491873 -0.118875 16.479908 0.252754 -2.250266 18.201929 -2.269526 2.717341 -2.40858 -0.762683 0.7442 -26.493599 -0.390237 0.700467 6e-06 0.0 0.0 -0.013018 0.021702 0.020556 0.041851 0.100418 0.02733 0.058436 -0.06273 0.019036 -141.722321 -70.187752 161.436707 34.52166 -36.72121 25.183857 39.950806 0.408178 -0.016163 3.095792 -3.139667 12.052584 17.636629 -26.322731 52.41119 -19.466658 -14.395598 29.410389 -0.0 -8.774822 -2e-06 15.905301 -18.15159 6.107759 -0.609775 -1.795653 -3.889329 -4.80709 -11.046809 -2.93785 3e-06 -20.976015 1e-06 -5.01997 -25.033556 -4.031884 5e-06 -1e-06 1e-06 -10.634533 -5.686971 -3.565589 10.573274 -17.922951 -3.113899 1e-06 -13.82121 3e-06 -0.501778 -31.181505 -4.027014 -11.119379 -59.424267 6.791916 -13.982712 -7.150198 -2.875043 13.77273 -8.401491 -3.218242 0.347733 -34.211552 0.771655 -0.963027 -17.73337 2.62102 -1e-06 1e-06 0.0 -17.34642 -20.095217 -4.201782 21.757557 -1.638374 3.866426 0.0 -6.338823 0.0 -1.697591 -22.591745 -6.194005 1e-06 -3e-06 -4e-06 38.979618 -77.309372 160.002899 40.983791 -47.345467 10.383453 34.0751 -0.02619 0.158773 1.712637 -12.61716 29.317453 22.182114 -20.375898 49.933319 -16.701811 -16.74353 28.476528 -3e-06 -12.6906 -0.0 16.146795 -17.940847 2.824605 -0.105919 -1.513856 -4.275881 -5.039041 -5.612871 -2.953556 4e-06 -11.020523 -2e-06 -6.111298 -15.89533 -3.840469 1e-06 0.0 0.0 -10.28337 -5.680285 -4.341839 11.028294 -11.302404 -2.372632 -1.38427 -14.238577 -6.32012 -0.625437 -26.924187 -3.827601 -4.951974 -50.07748 -3.568923 -13.708525 -7.363474 -3.720939 18.141148 -14.052739 -3.242674 8e-06 -18.787266 0.0 -0.429712 -8.456043 2.555504 0.0 1e-06 0.0 -15.923538 -20.094479 -5.473583 30.41921 -7.190825 1.735926 0.0 -8.162926 -0.0 -1.861902 -22.861467 -6.167942 1e-06 -3e-06 -1e-06 173.135284 -4.474866 -9.375359 14.65587 0.008768 0.10008 -75.64566 -3.304044 -8.995167 -6.364312 1.514462 2.094892 -0.999999 -1e-06 0.0 -7.523711 -6.68876 -6.086833 18.08407 -0.011534 0.042751 -78.751587 -1.69794 -7.374001 -6.477229 0.822627 1.68057 -1.000001 -0.0 0.0 
0.0 0.0 0.0 0.0 -0.0 0.0 3.286714 99.872795 1.755345 91.185844 0.108955 89.999672 -2.049533 -0.233685 -0.071826 -11.657022 -0.489828 -0.094987 16.519463 0.262341 -2.251355 18.1943 -2.255517 2.737304 -2.430737 -0.748552 0.717426 -26.460896 -0.390733 0.684214 6e-06 0.0 0.0 -0.015351 0.021252 0.023405 0.037943 0.100268 0.033564 0.056931 -0.063712 0.018226 -141.733948 -70.245453 161.492157 34.489098 -36.705643 25.12781 39.989567 0.369677 -0.037889 3.136487 -3.238204 11.911954 17.636627 -26.322727 52.411186 -19.466661 -14.395597 29.410385 -0.0 -8.774822 -2e-06 15.897155 -18.134705 6.099906 -0.609776 -1.795653 -3.889328 -4.807089 -11.046811 -2.937849 3e-06 -20.976019 1e-06 -5.019972 -25.03356 -4.03188 6e-06 2e-06 -1e-06 -10.634534 -5.68697 -3.565586 10.573272 -17.922951 -3.113901 0.0 -13.821211 3e-06 -0.501779 -31.181505 -4.027014 -11.170275 -59.363026 6.82978 -13.982714 -7.150197 -2.875039 13.772731 -8.401491 -3.218243 0.347735 -34.211555 0.771652 -0.963029 -17.733372 2.621019 0.0 2e-06 1e-06 -17.34642 -20.095219 -4.201779 21.757559 -1.638374 3.866426 1e-06 -6.338823 -0.0 -1.697589 -22.591745 -6.194006 -0.0 -1e-06 -4e-06 39.021042 -77.300842 160.039673 40.841904 -47.350582 10.38619 34.040596 -0.067173 0.143485 1.766828 -12.691726 29.495472 22.182119 -20.375895 49.933327 -16.701818 -16.743532 28.476538 -2e-06 -12.690605 -1e-06 16.107502 -17.919971 2.844032 -0.105919 -1.513858 -4.275882 -5.039042 -5.612874 -2.953557 3e-06 -11.020527 -3e-06 -6.1113 -15.895338 -3.840472 1e-06 0.0 0.0 -10.283373 -5.680291 -4.341838 11.028294 -11.302406 -2.372634 -1.384268 -14.238583 -6.320122 -0.625437 -26.924196 -3.827606 -4.983675 -50.08596 -3.540074 -13.708527 -7.363479 -3.720938 18.141153 -14.05274 -3.242676 7e-06 -18.787273 -4e-06 -0.429711 -8.456047 2.555503 -0.0 1e-06 0.0 -15.923539 -20.094492 -5.473587 30.419222 -7.190827 1.735925 1e-06 -8.162929 -1e-06 -1.861903 -22.861479 -6.167946 -1e-06 -3e-06 -1e-06 173.177277 -4.415971 -9.379992 14.598457 0.010111 0.122032 -75.614059 -3.306231 -9.050789 -6.333886 1.516437 2.099897 -0.999999 -0.0 -0.0 -7.557473 -6.744475 -6.034902 18.153605 -0.004734 0.038705 -78.767456 -1.70576 -7.374555 -6.448199 0.812156 1.680514 -1.000001 0.0 -0.0 
0.0 0.0 0.0 0.0 -0.0 0.0 3.283449 99.86161 1.732378 91.219986 0.140386 89.96833 -2.041863 -0.268646 -0.073098 -11.664785 -0.487399 -0.092495 16.582722 0.266463 -2.220318 18.20993 -2.247739 2.747366 -2.45999 -0.735822 0.686047 -26.464802 -0.378889 0.653713 6e-06 0.0 -0.0 -0.017504 0.020935 0.020864 0.028008 0.09886 0.033901 0.049457 -0.063125 0.012368 -141.76503 -70.27961 161.567429 34.471401 -36.662064 25.114029 39.997456 0.341297 -0.044156 3.138397 -3.284075 11.843748 17.636623 -26.322727 52.411194 -19.466652 -14.395592 29.410389 -0.0 -8.774819 -3e-06 15.887536 -18.11684 6.098155 -0.609777 -1.795654 -3.889326 -4.807087 -11.046807 -2.93785 3e-06 -20.976011 -1e-06 -5.019969 -25.033552 -4.03188 6e-06 2e-06 1e-06 -10.634532 -5.686968 -3.565588 10.57327 -17.922945 -3.113901 1e-06 -13.821205 2e-06 -0.501776 -31.181498 -4.027017 -11.196681 -59.324539 6.835076 -13.982712 -7.150195 -2.875042 13.772726 -8.401491 -3.21824 0.347736 -34.211544 0.771652 -0.963029 -17.73337 2.621019 -1e-06 1e-06 0.0 -17.346413 -20.095211 -4.201784 21.757553 -1.638374 3.866428 1e-06 -6.338821 0.0 -1.697589 -22.59174 -6.194006 -0.0 -5e-06 -3e-06 39.029495 -77.276512 160.084488 40.674 -47.342304 10.585247 34.029266 -0.044412 0.149436 1.821437 -12.780064 29.687752 22.182119 -20.3759 49.933323 -16.701811 -16.74353 28.476532 -3e-06 -12.6906 -1e-06 16.074299 -17.8986 2.868457 -0.10592 -1.513855 -4.27588 -5.039041 -5.612871 -2.953558 4e-06 -11.020521 -1e-06 -6.111297 -15.895329 -3.840471 1e-06 0.0 1e-06 -10.283369 -5.680286 -4.341839 11.028292 -11.302404 -2.372632 -1.384267 -14.238579 -6.320121 -0.625438 -26.924187 -3.827599 -5.015195 -50.064064 -3.500682 -13.708525 -7.363473 -3.72094 18.141148 -14.052739 -3.242673 7e-06 -18.787268 1e-06 -0.429711 -8.456047 2.555504 -0.0 2e-06 0.0 -15.923534 -20.094479 -5.473587 30.41921 -7.190827 1.735925 2e-06 -8.162927 -0.0 -1.861906 -22.861467 -6.167937 -1e-06 -5e-06 -1e-06 173.182678 -4.387035 -9.408203 14.63838 0.007085 0.128746 -75.626434 -3.303319 -9.085616 -6.316713 1.514092 2.100651 -0.999998 -0.0 -0.0 -7.61316 -6.786941 -6.011191 18.289869 -0.001869 0.028801 -78.818642 -1.697119 -7.378441 -6.428808 0.80256 1.678895 -1.000002 -0.0 0.0 
